<svg xmlns="http://www.w3.org/2000/svg" xmlns:xlink="http://www.w3.org/1999/xlink" x="0" y="0" width="701.45458984375" height="416.3636474609375" style="
        width:701.45458984375px;
        height:416.3636474609375px;
        background: transparent;
        fill: none;
">
        
        
        <svg xmlns="http://www.w3.org/2000/svg" class="role-diagram-draw-area" style="overflow: visible;"><g class="shapes-region" style="stroke: black; fill: none;"><g class="composite-shape axis2d" style="stroke-width: 2; stroke: rgb(74, 144, 226); stroke-opacity: 1;"><path class="real" d=" M27.82,351.36 L685.82,351.36 M82.88,17 L82.88,397.05"/><path d=" M678.82,346.36 L685.82,351.36 L678.82,356.36"/><path d=" M77.88,24 L82.88,17 L87.88,24"/><path d=" M113.88,346.36 L113.88,356.36 M144.88,346.36 L144.88,356.36 M175.88,346.36 L175.88,356.36 M206.88,346.36 L206.88,356.36 M237.88,346.36 L237.88,356.36 M268.88,346.36 L268.88,356.36 M299.88,346.36 L299.88,356.36 M330.88,346.36 L330.88,356.36 M361.88,346.36 L361.88,356.36 M392.88,346.36 L392.88,356.36 M423.88,346.36 L423.88,356.36 M454.88,346.36 L454.88,356.36 M485.88,346.36 L485.88,356.36 M516.88,346.36 L516.88,356.36 M547.88,346.36 L547.88,356.36 M578.88,346.36 L578.88,356.36 M609.88,346.36 L609.88,356.36 M640.88,346.36 L640.88,356.36 M51.88,346.36 L51.88,356.36 M77.88,320.36 L87.88,320.36 M77.88,289.36 L87.88,289.36 M77.88,258.36 L87.88,258.36 M77.88,227.36 L87.88,227.36 M77.88,196.36 L87.88,196.36 M77.88,165.36 L87.88,165.36 M77.88,134.36 L87.88,134.36 M77.88,103.36 L87.88,103.36 M77.88,72.36 L87.88,72.36 M77.88,41.36 L87.88,41.36 M77.88,382.36 L87.88,382.36"/><g style="fill: rgb(0, 0, 0); fill-opacity: 1; font-size: 11px; font-weight: normal; text-anchor: end; stroke: none; font-family: Times;"/></g><g class="arrow-line"><path class="connection real" stroke-dasharray="" d="  M640.15,44.31 L331.01,197.05 L82.82,319.68" style="stroke: rgb(126, 211, 33); stroke-opacity: 1; stroke-width: 2; fill: none; fill-opacity: 1;"/></g><g class="arrow-line"><path class="connection real" stroke-dasharray="" d="  M392.05,166.57 L393.21,343.95" style="stroke: rgb(74, 144, 226); stroke-width: 1; fill: none; fill-opacity: 1; stroke-opacity: 1;"/><g stroke="rgb(74,144,226)" transform="matrix(-0.006632202535817791,-0.9999780067029094,0.9999780067029094,-0.006632202535817791,393.2272644042969,345.9545440673828)" style="stroke: rgb(74, 144, 226); stroke-width: 1;" stroke-opacity="1"><path d=" M10.93,-3.29 Q4.96,-0.45 0,0 Q4.96,0.45 10.93,3.29"/></g></g><g class="arrow-line"><path class="connection real" stroke-dasharray="" d="  M519.82,54.41 L482.82,118.68" style="stroke: rgb(74, 144, 226); stroke-width: 1; fill: none; fill-opacity: 1; stroke-opacity: 1;"/><g stroke="rgb(74,144,226)" transform="matrix(0.4989415774777826,-0.8666356225450128,0.8666356225450128,0.4989415774777826,481.81817626953125,120.40908813476562)" style="stroke: rgb(74, 144, 226); stroke-width: 1;" stroke-opacity="1"><path d=" M10.93,-3.29 Q4.96,-0.45 0,0 Q4.96,0.45 10.93,3.29"/></g></g><g class="arrow-line"><defs><!-- react-text: 35516 --> <!-- /react-text --><pattern id="_pgfyedam1r4fdg-full-view" x="0" y="0" width="8" height="8" patternTransform="rotate(0,0,0)" patternUnits="userSpaceOnUse"><circle cx="4" cy="4" r="1" style="stroke: rgb(0, 0, 0); stroke-opacity: 1; stroke-width: 1; fill: none;"/></pattern></defs><path class="connection real" stroke-dasharray="6 6" d="  M640.15,44.31 L640.82,349.41" style="stroke: rgb(74, 144, 226); stroke-width: 1; fill: url(&quot;#_pgfyedam1r4fdg-full-view&quot;); fill-opacity: 1; stroke-opacity: 1;"/></g><g/></g><g/><g/><g/></svg>
        <svg xmlns="http://www.w3.org/2000/svg" xmlns:xlink="http://www.w3.org/1999/xlink" width="700" height="414.9090881347656" style="width:700px;height:414.9090881347656px;font-family:Asana-Math, Asana;background:transparent;"><g transform="matrix(0.9993969029087195,0.03472506956737967,-0.03472506956737967,0.9993969029087195,5.233808717591955,-13.351755541734036)"><g><g><g transform="matrix(1,0,0,1,330.8579406738281,147.67273559570313)"><path transform="matrix(0.020399999999999998,0,0,-0.020399999999999998,0,0)" d="M345 437L329 437L350 549C366 635 394 673 440 673C470 673 497 658 512 634L522 638C527 654 537 685 545 705L550 720C534 727 503 733 480 733C469 733 453 730 445 726C421 715 339 654 316 630C294 608 282 578 271 521L256 442C215 422 195 414 170 405L165 383L246 383L237 327C207 132 170 -54 148 -123C130 -182 100 -213 64 -213C41 -213 30 -206 12 -184L-2 -188C-6 -211 -20 -259 -25 -268C-16 -273 -1 -276 10 -276C51 -276 105 -245 144 -198C215 -114 235 -18 319 383L423 383C427 402 434 425 440 439L436 446C407 439 408 437 345 437Z" stroke="rgb(255,255,255)" stroke-opacity="1" stroke-width="8" fill="rgb(255,255,255)" fill-opacity="1"></path></g></g><g><g><g><g><g transform="matrix(1,0,0,1,342.6874694824219,152.00727966308594)"><path transform="matrix(0.01428,0,0,-0.01428,0,0)" d="M16 23L16 -3C203 -3 203 0 239 0C275 0 275 -3 468 -3L468 82C353 77 307 81 122 77L304 270C401 373 431 428 431 503C431 618 353 689 226 689C154 689 105 669 56 619L39 483L68 483L81 529C97 587 133 612 200 612C286 612 341 558 341 473C341 398 299 324 186 204Z" stroke="rgb(255,255,255)" stroke-opacity="1" stroke-width="8" fill="rgb(255,255,255)" fill-opacity="1"></path></g></g></g></g></g><g><svg x="352.4488830566406" overflow="visible" y="118" height="52" width="10.193181991577148"><path d=" M 7.53 2.04 c 0.00 -0.07 -0.05 -0.10 -0.10 -0.10 c -0.03 0.00 -0.07 0.01 -0.10 0.03 c -3.05 1.60 -5.57 4.47 -5.57 11.27 v 0.72 h 1.84 v -0.72 c 0.00 -3.88 0.77 -8.43 3.97 -10.87 c 0.15 -0.11 0.15 -0.23 0.15 -0.34 z   M 1.72 13.97 v 24.07 h 1.84 v -24.07 z" style="fill:rgb(255,255,255);fill-opacity:1;stroke-width:1px;stroke:none;stroke-opacity:1;"></path><path d=" M 7.53 49.96 c 0.00 0.07 -0.05 0.10 -0.10 0.10 c -0.03 0.00 -0.07 -0.01 -0.10 -0.03 c -3.05 -1.60 -5.57 -4.47 -5.57 -11.27 v -0.72 h 1.84 v 0.72 c 0.00 3.88 0.77 8.43 3.97 10.87 c 0.15 0.11 0.15 0.23 0.15 0.34 z" style="fill:rgb(255,255,255);fill-opacity:1;stroke-width:1px;stroke:none;stroke-opacity:1;"></path></svg></g><g><g><g><g><g transform="matrix(1,0,0,1,362.6420593261719,133.1954559326172)"><path transform="matrix(0.020399999999999998,0,0,-0.020399999999999998,0,0)" d="M24 388L31 368L63 389C100 412 103 414 110 414C121 414 128 404 128 389C128 338 87 145 46 2L53 -9C78 -2 101 4 123 8C142 134 163 199 209 268C263 352 338 414 383 414C394 414 400 405 400 390C400 372 397 351 389 319L337 107C328 70 324 47 324 31C324 6 335 -9 354 -9C380 -9 416 12 514 85L504 103L478 86C449 67 427 56 417 56C410 56 404 65 404 76C404 81 405 92 406 96L472 372C479 401 483 429 483 446C483 469 472 482 452 482C410 482 341 444 282 389C244 354 216 320 164 247L202 408C206 426 208 438 208 449C208 470 200 482 185 482C164 482 125 460 52 408Z" stroke="rgb(255,255,255)" stroke-opacity="1" stroke-width="8" fill="rgb(255,255,255)" fill-opacity="1"></path></g></g></g></g><g><g><g><g transform="matrix(1,0,0,1,363.2102355957031,164.15)"><path transform="matrix(0.020399999999999998,0,0,-0.020399999999999998,0,0)" d="M16 23L16 -3C203 -3 203 0 239 0C275 0 275 -3 468 -3L468 82C353 77 307 81 122 77L304 270C401 373 431 428 431 503C431 618 353 689 226 689C154 689 105 669 56 619L39 483L68 483L81 529C97 587 133 612 200 612C286 612 341 558 341 473C341 398 299 324 186 204Z" stroke="rgb(255,255,255)" stroke-opacity="1" stroke-width="8" fill="rgb(255,255,255)" fill-opacity="1"></path></g></g></g></g><line style="fill:none;stroke-width:0.727273px;stroke:rgb(255, 255, 255);" x1="362.6420593261719" y1="142.54546427726746" x2="373.9716053009033" y2="142.54546427726746"></line></g><g><g transform="matrix(1,0,0,1,380.0852355957031,147.67273559570313)"><path transform="matrix(0.020399999999999998,0,0,-0.020399999999999998,0,0)" d="M604 241L604 300L364 300L364 538L305 538L305 300L65 300L65 241L305 241L305 0L364 0L364 241Z" stroke="rgb(255,255,255)" stroke-opacity="1" stroke-width="8" fill="rgb(255,255,255)" fill-opacity="1"></path></g></g><g><g transform="matrix(1,0,0,1,397.8011169433594,147.67273559570313)"><path transform="matrix(0.020399999999999998,0,0,-0.020399999999999998,0,0)" d="M418 -3L418 27L366 30C311 33 301 44 301 96L301 700L60 598L67 548L217 614L217 96C217 44 206 33 152 30L96 27L96 -3C250 0 250 0 261 0C292 0 402 -3 418 -3Z" stroke="rgb(255,255,255)" stroke-opacity="1" stroke-width="8" fill="rgb(255,255,255)" fill-opacity="1"></path></g></g><g><g transform="matrix(1,0,0,1,407.9829406738281,147.67273559570313)"><path transform="matrix(0.020399999999999998,0,0,-0.020399999999999998,0,0)" d="M204 123C177 114 159 108 106 93C99 17 74 -48 16 -144L30 -155L71 -136C152 -31 190 32 218 109Z" stroke="rgb(255,255,255)" stroke-opacity="1" stroke-width="8" fill="rgb(255,255,255)" fill-opacity="1"></path></g></g><g><g transform="matrix(1,0,0,1,417.1534118652344,147.67273559570313)"><path transform="matrix(0.020399999999999998,0,0,-0.020399999999999998,0,0)" d="M273 388L280 368L312 389C349 412 352 414 359 414C370 414 377 404 377 389C377 338 336 145 295 2L302 -9C327 -2 350 4 372 8C391 134 412 199 458 268C512 352 587 414 632 414C643 414 649 405 649 390C649 372 646 351 638 319L586 107C577 70 573 47 573 31C573 6 584 -9 603 -9C629 -9 665 12 763 85L753 103L727 86C698 67 676 56 666 56C659 56 653 65 653 76C653 81 654 92 655 96L721 372C728 401 732 429 732 446C732 469 721 482 701 482C659 482 590 444 531 389C493 354 465 320 413 247L451 408C455 426 457 438 457 449C457 470 449 482 434 482C413 482 374 460 301 408Z" stroke="rgb(255,255,255)" stroke-opacity="1" stroke-width="8" fill="rgb(255,255,255)" fill-opacity="1"></path></g></g><g><svg x="431.5284118652344" overflow="visible" y="118" height="52" width="10.193181991577148"><path d=" M 2.10 2.04 c 0.00 -0.07 0.05 -0.10 0.10 -0.10 c 0.03 0.00 0.07 0.01 0.10 0.03 c 3.05 1.60 5.57 4.47 5.57 11.27 v 0.72 h -1.84 v -0.72 c 0.00 -3.88 -0.77 -8.43 -3.97 -10.87 c -0.15 -0.11 -0.15 -0.23 -0.15 -0.34 z  M 7.90 13.97 v 24.07 h -1.84 v -24.07 z" style="fill:rgb(255,255,255);fill-opacity:1;stroke-width:1px;stroke:none;stroke-opacity:1;"></path><path d=" M 2.10 49.96 c 0.00 0.07 0.05 0.10 0.10 0.10 c 0.03 0.00 0.07 -0.01 0.10 -0.03 c 3.05 -1.60 5.57 -4.47 5.57 -11.27 v -0.72 h -1.84 v 0.72 c 0.00 3.88 -0.77 8.43 -3.97 10.87 c -0.15 0.11 -0.15 0.23 -0.15 0.34 z" style="fill:rgb(255,255,255);fill-opacity:1;stroke-width:1px;stroke:none;stroke-opacity:1;"></path></svg></g></g></g><g transform="matrix(0.8890171414857361,-0.4578739151169575,0.4578739151169575,0.8890171414857361,8.836397272557406,262.5011304588113)"><g><g><text x="475.0057067871094" y="77.91477966308594" style="white-space:pre;stroke:none;fill:rgb(255,0,0);fill-opacity:1;font-size:25.95px;font-family:Arial, Helvetica, sans-serif;font-weight:700;font-style:normal;dominant-baseline:text-before-edge;text-decoration:none solid rgb(255, 0, 0);">X</text></g></g></g><g transform="matrix(0.9993969029087195,0.03472506956737967,-0.03472506956737967,0.9993969029087195,10.760201185302307,-1.5498964800391377)"><g><g><g transform="matrix(1,0,0,1,15.25,315.24091186523435)"><path transform="matrix(0.020399999999999998,0,0,-0.020399999999999998,0,0)" d="M345 437L329 437L350 549C366 635 394 673 440 673C470 673 497 658 512 634L522 638C527 654 537 685 545 705L550 720C534 727 503 733 480 733C469 733 453 730 445 726C421 715 339 654 316 630C294 608 282 578 271 521L256 442C215 422 195 414 170 405L165 383L246 383L237 327C207 132 170 -54 148 -123C130 -182 100 -213 64 -213C41 -213 30 -206 12 -184L-2 -188C-6 -211 -20 -259 -25 -268C-16 -273 -1 -276 10 -276C51 -276 105 -245 144 -198C215 -114 235 -18 319 383L423 383C427 402 434 425 440 439L436 446C407 439 408 437 345 437Z" stroke="rgb(255,255,255)" stroke-opacity="1" stroke-width="8" fill="rgb(255,255,255)" fill-opacity="1"></path></g></g><g><g><g><g><g transform="matrix(1,0,0,1,27.07952880859375,319.5754711914062)"><path transform="matrix(0.01428,0,0,-0.01428,0,0)" d="M418 -3L418 27L366 30C311 33 301 44 301 96L301 700L60 598L67 548L217 614L217 96C217 44 206 33 152 30L96 27L96 -3C250 0 250 0 261 0C292 0 402 -3 418 -3Z" stroke="rgb(255,255,255)" stroke-opacity="1" stroke-width="8" fill="rgb(255,255,255)" fill-opacity="1"></path></g></g></g></g></g><g><g transform="matrix(1,0,0,1,35.420440673828125,315.9681762695312)"><path transform="matrix(0.020399999999999998,0,0,-0.020399999999999998,0,0)" d="M146 266C146 526 243 632 301 700L282 726C225 675 60 542 60 266C60 159 85 58 133 -32C168 -99 200 -138 282 -215L301 -194C255 -137 146 -15 146 266Z" stroke="rgb(255,255,255)" stroke-opacity="1" stroke-width="8" fill="rgb(255,255,255)" fill-opacity="1"></path></g></g><g><g transform="matrix(1,0,0,1,42.20452880859375,315.24091186523435)"><path transform="matrix(0.020399999999999998,0,0,-0.020399999999999998,0,0)" d="M263 689C108 689 29 566 29 324C29 207 50 106 85 57C120 8 176 -20 238 -20C389 -20 465 110 465 366C465 585 400 689 263 689ZM245 654C342 654 381 556 381 316C381 103 343 15 251 15C154 15 113 116 113 360C113 571 150 654 245 654Z" stroke="rgb(255,255,255)" stroke-opacity="1" stroke-width="8" fill="rgb(255,255,255)" fill-opacity="1"></path></g></g><g><g transform="matrix(1,0,0,1,52.3863525390625,315.24091186523435)"><path transform="matrix(0.020399999999999998,0,0,-0.020399999999999998,0,0)" d="M204 123C177 114 159 108 106 93C99 17 74 -48 16 -144L30 -155L71 -136C152 -31 190 32 218 109Z" stroke="rgb(255,255,255)" stroke-opacity="1" stroke-width="8" fill="rgb(255,255,255)" fill-opacity="1"></path></g></g><g><g transform="matrix(1,0,0,1,61.556793212890625,315.24091186523435)"><path transform="matrix(0.020399999999999998,0,0,-0.020399999999999998,0,0)" d="M273 388L280 368L312 389C349 412 352 414 359 414C370 414 377 404 377 389C377 338 336 145 295 2L302 -9C327 -2 350 4 372 8C391 134 412 199 458 268C512 352 587 414 632 414C643 414 649 405 649 390C649 372 646 351 638 319L586 107C577 70 573 47 573 31C573 6 584 -9 603 -9C629 -9 665 12 763 85L753 103L727 86C698 67 676 56 666 56C659 56 653 65 653 76C653 81 654 92 655 96L721 372C728 401 732 429 732 446C732 469 721 482 701 482C659 482 590 444 531 389C493 354 465 320 413 247L451 408C455 426 457 438 457 449C457 470 449 482 434 482C413 482 374 460 301 408Z" stroke="rgb(255,255,255)" stroke-opacity="1" stroke-width="8" fill="rgb(255,255,255)" fill-opacity="1"></path></g></g><g><g transform="matrix(1,0,0,1,77.96591186523438,315.9681762695312)"><path transform="matrix(0.020399999999999998,0,0,-0.020399999999999998,0,0)" d="M51 726L32 700C87 636 187 526 187 266C187 -10 83 -131 32 -194L51 -215C104 -165 273 -23 273 265C273 542 108 675 51 726Z" stroke="rgb(255,255,255)" stroke-opacity="1" stroke-width="8" fill="rgb(255,255,255)" fill-opacity="1"></path></g></g></g></g><g transform="matrix(0.9993969029087195,0.03472506956737967,-0.03472506956737967,0.9993969029087195,12.545654926181463,-2.352540282396035)"><g><g><g transform="matrix(1,0,0,1,68.77841186523438,367.4340881347656)"><path transform="matrix(0.020399999999999998,0,0,-0.020399999999999998,0,0)" d="M263 689C108 689 29 566 29 324C29 207 50 106 85 57C120 8 176 -20 238 -20C389 -20 465 110 465 366C465 585 400 689 263 689ZM245 654C342 654 381 556 381 316C381 103 343 15 251 15C154 15 113 116 113 360C113 571 150 654 245 654Z" stroke="rgb(255,255,255)" stroke-opacity="1" stroke-width="8" fill="rgb(255,255,255)" fill-opacity="1"></path></g></g></g></g><g transform="matrix(0.9993969029087195,0.03472506956737967,-0.03472506956737967,0.9993969029087195,13.196376588558792,-22.00155681109129)"><g><g><g transform="matrix(1,0,0,1,634.3352355957031,376.34320678710935)"><path transform="matrix(0.020399999999999998,0,0,-0.020399999999999998,0,0)" d="M24 388L31 368L63 389C100 412 103 414 110 414C121 414 128 404 128 389C128 338 87 145 46 2L53 -9C78 -2 101 4 123 8C142 134 163 199 209 268C263 352 338 414 383 414C394 414 400 405 400 390C400 372 397 351 389 319L337 107C328 70 324 47 324 31C324 6 335 -9 354 -9C380 -9 416 12 514 85L504 103L478 86C449 67 427 56 417 56C410 56 404 65 404 76C404 81 405 92 406 96L472 372C479 401 483 429 483 446C483 469 472 482 452 482C410 482 341 444 282 389C244 354 216 320 164 247L202 408C206 426 208 438 208 449C208 470 200 482 185 482C164 482 125 460 52 408Z" stroke="rgb(255,255,255)" stroke-opacity="1" stroke-width="8" fill="rgb(255,255,255)" fill-opacity="1"></path></g></g></g></g><g><g><g><g transform="matrix(1,0,0,1,114.99996948242188,313.9068237304688)"><path transform="matrix(0.0216,0,0,-0.0216,0,0)" d="M35 0C70 3 144 3 182 3C220 3 295 3 330 0L330 31L306 31C229 31 227 42 227 78L227 316L396 316C516 316 624 397 624 497C624 595 525 683 388 683L35 683L35 652L59 652C136 652 138 641 138 605L138 78C138 42 136 31 59 31L35 31ZM224 342L224 612C224 645 226 652 273 652L362 652C521 652 521 546 521 497C521 450 521 342 362 342ZM712 400C790 400 790 397 790 308L790 158C790 80 790 -11 942 -11C998 -11 1042 17 1071 79L1071 -11L1215 0L1215 31C1145 31 1137 38 1137 87L1137 442L990 431L990 400C1060 400 1068 393 1068 344L1068 166C1068 79 1020 11 947 11C863 11 859 58 859 110L859 442L712 431ZM1263 0C1302 1 1349 3 1377 3C1417 3 1464 3 1504 0L1504 31L1483 31C1409 31 1407 42 1407 78L1407 232C1407 331 1449 420 1525 420C1532 420 1534 420 1536 419C1533 418 1513 406 1513 380C1513 352 1534 337 1556 337C1574 337 1599 349 1599 381C1599 413 1568 442 1525 442C1452 442 1416 375 1402 332L1402 442L1263 431L1263 400C1333 400 1341 393 1341 344L1341 76C1341 31 1330 31 1263 31ZM1654 -163L1654 -194C1688 -193 1740 -191 1766 -191C1793 -191 1844 -193 1879 -194L1879 -163C1812 -163 1801 -163 1801 -118L1801 50L1801 59C1806 43 1848 -11 1924 -11C2043 -11 2147 87 2147 216C2147 343 2050 442 1938 442C1860 442 1818 398 1798 376L1798 442L1654 431L1654 400C1725 400 1732 394 1732 350L1732 -118C1732 -163 1721 -163 1654 -163ZM1801 114L1801 337C1830 388 1879 417 1930 417C2003 417 2064 329 2064 216C2064 95 1994 11 1920 11C1880 11 1842 31 1815 72C1801 93 1801 94 1801 114ZM2237 214C2237 85 2341 -11 2458 -11C2579 -11 2680 87 2680 214C2680 342 2580 448 2459 448C2334 448 2237 339 2237 214ZM2320 222C2320 261 2320 315 2344 359C2371 405 2418 426 2458 426C2502 426 2545 404 2571 361C2597 318 2597 260 2597 222C2597 186 2597 132 2575 88C2553 43 2509 14 2459 14C2416 14 2372 35 2345 81C2320 125 2320 186 2320 222ZM2742 13C2742 -4 2742 -11 2753 -11C2758 -11 2759 -10 2778 9C2780 11 2780 13 2798 32C2842 -10 2887 -11 2908 -11C3023 -11 3069 56 3069 128C3069 181 3039 211 3027 223C2994 255 2955 263 2913 271C2857 282 2790 295 2790 353C2790 388 2816 429 2902 429C3012 429 3017 339 3019 308C3020 299 3029 299 3031 299C3044 299 3044 304 3044 323L3044 424C3044 441 3044 448 3033 448C3028 448 3026 448 3013 436C3010 432 3000 423 2996 420C2958 448 2917 448 2902 448C2780 448 2742 381 2742 325C2742 290 2758 262 2785 240C2817 214 2845 208 2917 194C2939 190 3021 174 3021 102C3021 51 2986 11 2908 11C2824 11 2788 68 2769 153C2766 166 2765 170 2755 170C2742 170 2742 163 2742 145ZM3131 220C3131 86 3236 -11 3351 -11C3473 -11 3518 100 3518 119C3518 129 3510 131 3505 131C3496 131 3494 125 3492 117C3457 14 3367 14 3357 14C3307 14 3267 44 3244 81C3214 129 3214 195 3214 231L3493 231C3515 231 3518 231 3518 252C3518 351 3464 448 3339 448C3223 448 3131 345 3131 220ZM3215 252C3221 401 3305 426 3339 426C3442 426 3452 291 3452 252ZM3580 0C3613 1 3666 3 3691 3C3716 3 3765 1 3802 0L3802 31C3735 31 3724 31 3724 76L3724 694L3580 683L3580 652C3650 652 3658 645 3658 596L3658 76C3658 31 3647 31 3580 31ZM3852 220C3852 86 3957 -11 4072 -11C4194 -11 4239 100 4239 119C4239 129 4231 131 4226 131C4217 131 4215 125 4213 117C4178 14 4088 14 4078 14C4028 14 3988 44 3965 81C3935 129 3935 195 3935 231L4214 231C4236 231 4239 231 4239 252C4239 351 4185 448 4060 448C3944 448 3852 345 3852 220ZM3936 252C3942 401 4026 426 4060 426C4163 426 4173 291 4173 252ZM4301 13C4301 -4 4301 -11 4312 -11C4317 -11 4318 -10 4337 9C4339 11 4339 13 4357 32C4401 -10 4446 -11 4467 -11C4582 -11 4628 56 4628 128C4628 181 4598 211 4586 223C4553 255 4514 263 4472 271C4416 282 4349 295 4349 353C4349 388 4375 429 4461 429C4571 429 4576 339 4578 308C4579 299 4588 299 4590 299C4603 299 4603 304 4603 323L4603 424C4603 441 4603 448 4592 448C4587 448 4585 448 4572 436C4569 432 4559 423 4555 420C4517 448 4476 448 4461 448C4339 448 4301 381 4301 325C4301 290 4317 262 4344 240C4376 214 4404 208 4476 194C4498 190 4580 174 4580 102C4580 51 4545 11 4467 11C4383 11 4347 68 4328 153C4325 166 4324 170 4314 170C4301 170 4301 163 4301 145ZM4695 13C4695 -4 4695 -11 4706 -11C4711 -11 4712 -10 4731 9C4733 11 4733 13 4751 32C4795 -10 4840 -11 4861 -11C4976 -11 5022 56 5022 128C5022 181 4992 211 4980 223C4947 255 4908 263 4866 271C4810 282 4743 295 4743 353C4743 388 4769 429 4855 429C4965 429 4970 339 4972 308C4973 299 4982 299 4984 299C4997 299 4997 304 4997 323L4997 424C4997 441 4997 448 4986 448C4981 448 4979 448 4966 436C4963 432 4953 423 4949 420C4911 448 4870 448 4855 448C4733 448 4695 381 4695 325C4695 290 4711 262 4738 240C4770 214 4798 208 4870 194C4892 190 4974 174 4974 102C4974 51 4939 11 4861 11C4777 11 4741 68 4722 153C4719 166 4718 170 4708 170C4695 170 4695 163 4695 145ZM5422 13C5422 -4 5422 -11 5433 -11C5438 -11 5439 -10 5458 9C5460 11 5460 13 5478 32C5522 -10 5567 -11 5588 -11C5703 -11 5749 56 5749 128C5749 181 5719 211 5707 223C5674 255 5635 263 5593 271C5537 282 5470 295 5470 353C5470 388 5496 429 5582 429C5692 429 5697 339 5699 308C5700 299 5709 299 5711 299C5724 299 5724 304 5724 323L5724 424C5724 441 5724 448 5713 448C5708 448 5706 448 5693 436C5690 432 5680 423 5676 420C5638 448 5597 448 5582 448C5460 448 5422 381 5422 325C5422 290 5438 262 5465 240C5497 214 5525 208 5597 194C5619 190 5701 174 5701 102C5701 51 5666 11 5588 11C5504 11 5468 68 5449 153C5446 166 5445 170 5435 170C5422 170 5422 163 5422 145ZM5811 220C5811 86 5916 -11 6031 -11C6153 -11 6198 100 6198 119C6198 129 6190 131 6185 131C6176 131 6174 125 6172 117C6137 14 6047 14 6037 14C5987 14 5947 44 5924 81C5894 129 5894 195 5894 231L6173 231C6195 231 6198 231 6198 252C6198 351 6144 448 6019 448C5903 448 5811 345 5811 220ZM5895 252C5901 401 5985 426 6019 426C6122 426 6132 291 6132 252ZM6255 -79C6255 -151 6354 -206 6476 -206C6594 -206 6698 -155 6698 -77C6698 -42 6684 9 6633 37C6580 65 6522 65 6461 65C6436 65 6393 65 6386 66C6354 70 6333 101 6333 133C6333 137 6333 160 6350 180C6389 152 6430 149 6449 149C6542 149 6611 218 6611 295C6611 332 6595 369 6570 392C6606 426 6642 431 6660 431C6662 431 6667 431 6670 430C6659 426 6654 415 6654 403C6654 386 6667 374 6683 374C6693 374 6712 381 6712 404C6712 421 6700 453 6661 453C6641 453 6597 447 6555 406C6513 439 6471 442 6449 442C6356 442 6287 373 6287 296C6287 252 6309 214 6334 193C6321 178 6303 145 6303 110C6303 79 6316 41 6347 21C6287 4 6255 -39 6255 -79ZM6307 -79C6307 -33 6345 4 6389 7L6448 7C6534 7 6646 7 6646 -79C6646 -133 6575 -183 6477 -183C6376 -183 6307 -132 6307 -79ZM6362 295C6362 322 6363 354 6378 379C6386 391 6409 419 6449 419C6536 419 6536 319 6536 296C6536 269 6535 237 6520 212C6512 200 6489 172 6449 172C6362 172 6362 272 6362 295ZM6759 0C6794 1 6845 3 6872 3C6898 3 6950 1 6984 0L6984 31C6917 31 6906 31 6906 76L6906 260C6906 364 6977 420 7041 420C7104 420 7115 366 7115 309L7115 76C7115 31 7104 31 7037 31L7037 0C7072 1 7123 3 7150 3C7176 3 7228 1 7262 0L7262 31C7195 31 7184 31 7184 76L7184 260C7184 364 7255 420 7319 420C7382 420 7393 366 7393 309L7393 76C7393 31 7382 31 7315 31L7315 0C7350 1 7401 3 7428 3C7454 3 7506 1 7540 0L7540 31C7488 31 7463 31 7462 61L7462 252C7462 338 7462 369 7431 405C7417 422 7384 442 7326 442C7242 442 7198 382 7181 344C7167 431 7093 442 7048 442C6975 442 6928 399 6900 337L6900 442L6759 431L6759 400C6829 400 6837 393 6837 344L6837 76C6837 31 6826 31 6759 31ZM7588 220C7588 86 7693 -11 7808 -11C7930 -11 7975 100 7975 119C7975 129 7967 131 7962 131C7953 131 7951 125 7949 117C7914 14 7824 14 7814 14C7764 14 7724 44 7701 81C7671 129 7671 195 7671 231L7950 231C7972 231 7975 231 7975 252C7975 351 7921 448 7796 448C7680 448 7588 345 7588 220ZM7672 252C7678 401 7762 426 7796 426C7899 426 7909 291 7909 252ZM8036 0C8071 1 8122 3 8149 3C8175 3 8227 1 8261 0L8261 31C8194 31 8183 31 8183 76L8183 260C8183 364 8254 420 8318 420C8381 420 8392 366 8392 309L8392 76C8392 31 8381 31 8314 31L8314 0C8349 1 8400 3 8427 3C8453 3 8505 1 8539 0L8539 31C8487 31 8462 31 8461 61L8461 252C8461 338 8461 369 8430 405C8416 422 8383 442 8325 442C8252 442 8205 399 8177 337L8177 442L8036 431L8036 400C8106 400 8114 393 8114 344L8114 76C8114 31 8103 31 8036 31ZM8550 400L8635 400L8635 124C8635 1 8728 -11 8764 -11C8835 -11 8863 60 8863 124L8863 181L8838 181L8838 126C8838 52 8808 14 8771 14C8704 14 8704 105 8704 122L8704 400L8847 400L8847 431L8704 431L8704 615L8679 615C8678 533 8648 426 8550 422ZM9356 -250L9507 -250L9507 -227L9423 -227L9423 727L9507 727L9507 750L9356 750ZM9569 320C9569 245 9573 155 9614 79C9657 -2 9730 -22 9779 -22C9833 -22 9909 -1 9953 94C9985 163 9990 241 9990 320C9990 400 9985 480 9950 554C9904 650 9822 666 9780 666C9720 666 9647 640 9606 547C9574 478 9569 400 9569 320ZM9652 332C9652 396 9652 462 9660 516C9679 635 9754 644 9779 644C9812 644 9878 626 9897 527C9907 471 9907 395 9907 332C9907 257 9907 189 9896 125C9881 30 9824 0 9779 0C9740 0 9681 25 9663 121C9652 181 9652 273 9652 332ZM10116 53C10116 27 10133 0 10169 0C10185 0 10197 6 10207 14L10209 16C10210 16 10211 15 10211 1C10211 -63 10183 -124 10139 -171C10133 -177 10132 -178 10132 -182C10132 -189 10137 -193 10142 -193C10154 -193 10233 -114 10233 1C10233 65 10209 106 10169 106C10134 106 10116 79 10116 53Z" stroke="rgb(255,255,255)" stroke-opacity="1" stroke-width="8" fill="rgb(255,255,255)" fill-opacity="1"></path></g></g><g><g><g><g><g><g><g><g transform="matrix(1,0,0,1,346.5227355957031,302)"><path transform="matrix(0.017,0,0,-0.017,0,0)" d="M24 388L31 368L63 389C100 412 103 414 110 414C121 414 128 404 128 389C128 338 87 145 46 2L53 -9C78 -2 101 4 123 8C142 134 163 199 209 268C263 352 338 414 383 414C394 414 400 405 400 390C400 372 397 351 389 319L337 107C328 70 324 47 324 31C324 6 335 -9 354 -9C380 -9 416 12 514 85L504 103L478 86C449 67 427 56 417 56C410 56 404 65 404 76C404 81 405 92 406 96L472 372C479 401 483 429 483 446C483 469 472 482 452 482C410 482 341 444 282 389C244 354 216 320 164 247L202 408C206 426 208 438 208 449C208 470 200 482 185 482C164 482 125 460 52 408Z" stroke="rgb(255,255,255)" stroke-opacity="1" stroke-width="8" fill="rgb(255,255,255)" fill-opacity="1"></path></g></g></g></g><g><g><g><g transform="matrix(1,0,0,1,346.9999694824219,327.79547119140625)"><path transform="matrix(0.017,0,0,-0.017,0,0)" d="M16 23L16 -3C203 -3 203 0 239 0C275 0 275 -3 468 -3L468 82C353 77 307 81 122 77L304 270C401 373 431 428 431 503C431 618 353 689 226 689C154 689 105 669 56 619L39 483L68 483L81 529C97 587 133 612 200 612C286 612 341 558 341 473C341 398 299 324 186 204Z" stroke="rgb(255,255,255)" stroke-opacity="1" stroke-width="8" fill="rgb(255,255,255)" fill-opacity="1"></path></g></g></g></g><line style="fill:none;stroke-width:0.727273px;stroke:rgb(255, 255, 255);" x1="346.5227355957031" y1="309.87500834465027" x2="355.9659175872803" y2="309.87500834465027"></line></g></g></g></g><g><g transform="matrix(1,0,0,1,357.6590881347656,313.9068237304688)"><path transform="matrix(0.0216,0,0,-0.0216,0,0)" d="M21 -227L21 -250L172 -250L172 750L21 750L21 727L105 727L105 -227Z" stroke="rgb(255,255,255)" stroke-opacity="1" stroke-width="8" fill="rgb(255,255,255)" fill-opacity="1"></path></g></g></g></g><g transform="matrix(0.9993969029087195,0.03472506956737967,-0.03472506956737967,0.9993969029087195,13.202943863012763,-12.379696280110977)"><g><g><g><g><g><g transform="matrix(1,0,0,1,358.7557067871094,367.9136474609375)"><path transform="matrix(0.015300000000000001,0,0,-0.015300000000000001,0,0)" d="M24 388L31 368L63 389C100 412 103 414 110 414C121 414 128 404 128 389C128 338 87 145 46 2L53 -9C78 -2 101 4 123 8C142 134 163 199 209 268C263 352 338 414 383 414C394 414 400 405 400 390C400 372 397 351 389 319L337 107C328 70 324 47 324 31C324 6 335 -9 354 -9C380 -9 416 12 514 85L504 103L478 86C449 67 427 56 417 56C410 56 404 65 404 76C404 81 405 92 406 96L472 372C479 401 483 429 483 446C483 469 472 482 452 482C410 482 341 444 282 389C244 354 216 320 164 247L202 408C206 426 208 438 208 449C208 470 200 482 185 482C164 482 125 460 52 408Z" stroke="rgb(255,255,255)" stroke-opacity="1" stroke-width="8" fill="rgb(255,255,255)" fill-opacity="1"></path></g></g></g></g><g><g><g><g transform="matrix(1,0,0,1,359.1761169433594,389.6409118652344)"><path transform="matrix(0.015300000000000001,0,0,-0.015300000000000001,0,0)" d="M16 23L16 -3C203 -3 203 0 239 0C275 0 275 -3 468 -3L468 82C353 77 307 81 122 77L304 270C401 373 431 428 431 503C431 618 353 689 226 689C154 689 105 669 56 619L39 483L68 483L81 529C97 587 133 612 200 612C286 612 341 558 341 473C341 398 299 324 186 204Z" stroke="rgb(255,255,255)" stroke-opacity="1" stroke-width="8" fill="rgb(255,255,255)" fill-opacity="1"></path></g></g></g></g><line style="fill:none;stroke-width:0.727273px;stroke:rgb(255, 255, 255);" x1="358.7557067871094" y1="374.8977439403534" x2="367.2443437576294" y2="374.8977439403534"></line></g></g></g><g><g><g><g transform="matrix(1,0,0,1,413.0000305175781,315.9068237304688)"><path transform="matrix(0.0216,0,0,-0.0216,0,0)" d="M37 0C72 1 121 3 154 3C187 3 236 1 271 0L271 31C168 31 168 78 168 105L168 644L169 644L410 22C415 9 420 0 430 0C441 0 444 8 448 19L694 652L695 652L695 78C695 42 693 31 616 31L592 31L592 0C629 3 697 3 736 3C775 3 842 3 879 0L879 31L855 31C778 31 776 42 776 78L776 605C776 641 778 652 855 652L879 652L879 683L710 683C684 683 684 682 677 664L458 101L241 661C232 683 229 683 206 683L37 683L37 652L61 652C138 652 140 641 140 605L140 105C140 78 140 31 37 31ZM958 95C958 14 1055 -11 1118 -11C1184 -11 1230 29 1249 76C1253 36 1280 -6 1327 -6C1348 -6 1409 8 1409 89L1409 145L1384 145L1384 89C1384 31 1359 25 1348 25C1315 25 1311 70 1311 75L1311 275C1311 317 1311 356 1275 393C1236 432 1186 448 1138 448C1056 448 987 401 987 335C987 305 1007 288 1033 288C1061 288 1079 308 1079 334C1079 346 1074 379 1028 380C1055 415 1104 426 1136 426C1185 426 1242 387 1242 298L1242 261C1191 258 1121 255 1058 225C983 191 958 139 958 95ZM1035 96C1035 151 1077 234 1242 240L1242 140C1242 45 1170 11 1125 11C1076 11 1035 46 1035 96ZM1407 -124C1407 -169 1449 -205 1499 -205C1562 -205 1603 -148 1627 -91L1803 336C1829 399 1880 400 1896 400L1896 431C1873 429 1844 428 1821 428C1803 428 1756 430 1734 431L1734 400C1765 399 1781 382 1781 357C1781 347 1780 345 1775 333L1674 87L1563 356C1559 366 1557 370 1557 374C1557 400 1594 400 1613 400L1613 431C1587 430 1521 428 1504 428C1477 428 1437 429 1407 431L1407 400C1455 400 1474 400 1488 365L1638 0C1633 -13 1619 -46 1613 -59C1591 -114 1563 -183 1499 -183C1494 -183 1471 -183 1452 -165C1483 -161 1491 -139 1491 -123C1491 -97 1472 -81 1449 -81C1429 -81 1407 -94 1407 -124ZM1943 652C2013 652 2021 645 2021 596L2021 0L2046 0C2047 1 2055 15 2082 62C2097 39 2139 -11 2213 -11C2332 -11 2436 87 2436 216C2436 343 2338 442 2224 442C2146 442 2103 395 2087 377L2087 694L1943 683ZM2090 114L2090 320C2090 339 2090 340 2101 356C2140 412 2195 420 2219 420C2264 420 2300 394 2324 356C2350 315 2353 258 2353 217C2353 180 2351 120 2322 75C2301 44 2263 11 2209 11C2164 11 2128 35 2104 72C2090 93 2090 96 2090 114ZM2526 220C2526 86 2631 -11 2746 -11C2868 -11 2913 100 2913 119C2913 129 2905 131 2900 131C2891 131 2889 125 2887 117C2852 14 2762 14 2752 14C2702 14 2662 44 2639 81C2609 129 2609 195 2609 231L2888 231C2910 231 2913 231 2913 252C2913 351 2859 448 2734 448C2618 448 2526 345 2526 220ZM2610 252C2616 401 2700 426 2734 426C2837 426 2847 291 2847 252ZM3307 400C3385 400 3385 397 3385 308L3385 158C3385 80 3385 -11 3537 -11C3593 -11 3637 17 3666 79L3666 -11L3810 0L3810 31C3740 31 3732 38 3732 87L3732 442L3585 431L3585 400C3655 400 3663 393 3663 344L3663 166C3663 79 3615 11 3542 11C3458 11 3454 58 3454 110L3454 442L3307 431ZM3863 13C3863 -4 3863 -11 3874 -11C3879 -11 3880 -10 3899 9C3901 11 3901 13 3919 32C3963 -10 4008 -11 4029 -11C4144 -11 4190 56 4190 128C4190 181 4160 211 4148 223C4115 255 4076 263 4034 271C3978 282 3911 295 3911 353C3911 388 3937 429 4023 429C4133 429 4138 339 4140 308C4141 299 4150 299 4152 299C4165 299 4165 304 4165 323L4165 424C4165 441 4165 448 4154 448C4149 448 4147 448 4134 436C4131 432 4121 423 4117 420C4079 448 4038 448 4023 448C3901 448 3863 381 3863 325C3863 290 3879 262 3906 240C3938 214 3966 208 4038 194C4060 190 4142 174 4142 102C4142 51 4107 11 4029 11C3945 11 3909 68 3890 153C3887 166 3886 170 3876 170C3863 170 3863 163 3863 145ZM4252 220C4252 86 4357 -11 4472 -11C4594 -11 4639 100 4639 119C4639 129 4631 131 4626 131C4617 131 4615 125 4613 117C4578 14 4488 14 4478 14C4428 14 4388 44 4365 81C4335 129 4335 195 4335 231L4614 231C4636 231 4639 231 4639 252C4639 351 4585 448 4460 448C4344 448 4252 345 4252 220ZM4336 252C4342 401 4426 426 4460 426C4563 426 4573 291 4573 252ZM4701 400L4780 400L4780 76C4780 31 4769 31 4702 31L4702 0C4741 1 4788 3 4816 3C4856 3 4903 3 4943 0L4943 31L4922 31C4848 31 4846 42 4846 78L4846 400L4960 400L4960 431L4843 431L4843 547C4843 635 4891 683 4935 683C4938 683 4953 683 4968 676C4956 672 4938 659 4938 634C4938 611 4954 591 4981 591C5010 591 5025 611 5025 635C5025 672 4988 705 4935 705C4865 705 4780 652 4780 546L4780 431L4701 431ZM5005 400C5083 400 5083 397 5083 308L5083 158C5083 80 5083 -11 5235 -11C5291 -11 5335 17 5364 79L5364 -11L5508 0L5508 31C5438 31 5430 38 5430 87L5430 442L5283 431L5283 400C5353 400 5361 393 5361 344L5361 166C5361 79 5313 11 5240 11C5156 11 5152 58 5152 110L5152 442L5005 431ZM5561 0C5594 1 5647 3 5672 3C5697 3 5746 1 5783 0L5783 31C5716 31 5705 31 5705 76L5705 694L5561 683L5561 652C5631 652 5639 645 5639 596L5639 76C5639 31 5628 31 5561 31ZM6237 250C6237 172 6248 51 6303 -62C6363 -185 6449 -250 6459 -250C6465 -250 6469 -247 6469 -240C6469 -237 6469 -235 6452 -218C6327 -92 6295 97 6295 250C6295 424 6333 598 6456 723C6469 735 6469 737 6469 740C6469 747 6465 750 6459 750C6449 750 6359 682 6300 555C6249 445 6237 334 6237 250Z" stroke="rgb(255,255,255)" stroke-opacity="1" stroke-width="8" fill="rgb(255,255,255)" fill-opacity="1"></path></g></g><g><g><g><g><g><g><g><g transform="matrix(1,0,0,1,555.6590881347656,304)"><path transform="matrix(0.017,0,0,-0.017,0,0)" d="M24 388L31 368L63 389C100 412 103 414 110 414C121 414 128 404 128 389C128 338 87 145 46 2L53 -9C78 -2 101 4 123 8C142 134 163 199 209 268C263 352 338 414 383 414C394 414 400 405 400 390C400 372 397 351 389 319L337 107C328 70 324 47 324 31C324 6 335 -9 354 -9C380 -9 416 12 514 85L504 103L478 86C449 67 427 56 417 56C410 56 404 65 404 76C404 81 405 92 406 96L472 372C479 401 483 429 483 446C483 469 472 482 452 482C410 482 341 444 282 389C244 354 216 320 164 247L202 408C206 426 208 438 208 449C208 470 200 482 185 482C164 482 125 460 52 408Z" stroke="rgb(255,255,255)" stroke-opacity="1" stroke-width="8" fill="rgb(255,255,255)" fill-opacity="1"></path></g></g></g></g><g><g><g><g transform="matrix(1,0,0,1,556.1363830566406,329.79547119140625)"><path transform="matrix(0.017,0,0,-0.017,0,0)" d="M16 23L16 -3C203 -3 203 0 239 0C275 0 275 -3 468 -3L468 82C353 77 307 81 122 77L304 270C401 373 431 428 431 503C431 618 353 689 226 689C154 689 105 669 56 619L39 483L68 483L81 529C97 587 133 612 200 612C286 612 341 558 341 473C341 398 299 324 186 204Z" stroke="rgb(255,255,255)" stroke-opacity="1" stroke-width="8" fill="rgb(255,255,255)" fill-opacity="1"></path></g></g></g></g><line style="fill:none;stroke-width:0.727273px;stroke:rgb(255, 255, 255);" x1="555.6590881347656" y1="311.87500834465027" x2="565.1022701263428" y2="311.87500834465027"></line></g></g></g></g><g><g transform="matrix(1,0,0,1,566.7954406738281,315.9068237304688)"><path transform="matrix(0.0216,0,0,-0.0216,0,0)" d="M86 53C86 27 103 0 139 0C155 0 167 6 177 14L179 16C180 16 181 15 181 1C181 -63 153 -124 109 -171C103 -177 102 -178 102 -182C102 -189 107 -193 112 -193C124 -193 203 -114 203 1C203 65 179 106 139 106C104 106 86 79 86 53ZM642 0C677 1 728 3 755 3C781 3 833 1 867 0L867 31C800 31 789 31 789 76L789 260C789 364 860 420 924 420C987 420 998 366 998 309L998 76C998 31 987 31 920 31L920 0C955 1 1006 3 1033 3C1059 3 1111 1 1145 0L1145 31C1093 31 1068 31 1067 61L1067 252C1067 338 1067 369 1036 405C1022 422 989 442 931 442C858 442 811 399 783 337L783 442L642 431L642 400C712 400 720 393 720 344L720 76C720 31 709 31 642 31ZM1186 -227L1186 -250L1337 -250L1337 750L1186 750L1186 727L1270 727L1270 -227Z" stroke="rgb(255,255,255)" stroke-opacity="1" stroke-width="8" fill="rgb(255,255,255)" fill-opacity="1"></path></g></g></g></g><g><g><g><g transform="matrix(1,0,0,1,455.5909118652344,48.85)"><path transform="matrix(0.0216,0,0,-0.0216,0,0)" d="M56 2C56 -15 56 -22 67 -22C74 -22 75 -20 82 -9C82 -8 85 -5 118 48C149 14 213 -22 302 -22C419 -22 499 76 499 186C499 286 433 368 349 388L221 419C159 434 120 488 120 546C120 616 174 677 252 677C419 677 441 513 447 468C448 462 448 456 459 456C472 456 472 461 472 480L472 681C472 698 472 705 461 705C454 705 453 704 446 692L411 635C381 664 340 705 251 705C140 705 56 617 56 511C56 428 109 355 187 328C198 324 249 312 319 295C346 288 376 281 404 244C425 218 435 185 435 152C435 81 385 9 301 9C272 9 196 14 143 63C85 117 82 181 81 217C80 227 72 227 69 227C56 227 56 220 56 202ZM583 220C583 86 688 -11 803 -11C925 -11 970 100 970 119C970 129 962 131 957 131C948 131 946 125 944 117C909 14 819 14 809 14C759 14 719 44 696 81C666 129 666 195 666 231L945 231C967 231 970 231 970 252C970 351 916 448 791 448C675 448 583 345 583 220ZM667 252C673 401 757 426 791 426C894 426 904 291 904 252ZM1041 95C1041 14 1138 -11 1201 -11C1267 -11 1313 29 1332 76C1336 36 1363 -6 1410 -6C1431 -6 1492 8 1492 89L1492 145L1467 145L1467 89C1467 31 1442 25 1431 25C1398 25 1394 70 1394 75L1394 275C1394 317 1394 356 1358 393C1319 432 1269 448 1221 448C1139 448 1070 401 1070 335C1070 305 1090 288 1116 288C1144 288 1162 308 1162 334C1162 346 1157 379 1111 380C1138 415 1187 426 1219 426C1268 426 1325 387 1325 298L1325 261C1274 258 1204 255 1141 225C1066 191 1041 139 1041 95ZM1118 96C1118 151 1160 234 1325 240L1325 140C1325 45 1253 11 1208 11C1159 11 1118 46 1118 96ZM1527 0C1566 1 1613 3 1641 3C1681 3 1728 3 1768 0L1768 31L1747 31C1673 31 1671 42 1671 78L1671 232C1671 331 1713 420 1789 420C1796 420 1798 420 1800 419C1797 418 1777 406 1777 380C1777 352 1798 337 1820 337C1838 337 1863 349 1863 381C1863 413 1832 442 1789 442C1716 442 1680 375 1666 332L1666 442L1527 431L1527 400C1597 400 1605 393 1605 344L1605 76C1605 31 1594 31 1527 31ZM1924 216C1924 88 2023 -11 2139 -11C2273 -11 2305 109 2305 119C2305 129 2295 129 2292 129C2283 129 2281 125 2279 119C2250 26 2185 14 2148 14C2095 14 2007 57 2007 218C2007 381 2089 423 2142 423C2151 423 2214 422 2249 386C2208 383 2202 353 2202 340C2202 314 2220 294 2248 294C2274 294 2294 311 2294 341C2294 409 2218 448 2141 448C2016 448 1924 340 1924 216ZM2338 0C2373 1 2424 3 2451 3C2477 3 2529 1 2563 0L2563 31C2496 31 2485 31 2485 76L2485 260C2485 364 2556 420 2620 420C2683 420 2694 366 2694 309L2694 76C2694 31 2683 31 2616 31L2616 0C2651 1 2702 3 2729 3C2755 3 2807 1 2841 0L2841 31C2789 31 2764 31 2763 61L2763 252C2763 338 2763 369 2732 405C2718 422 2685 442 2627 442C2543 442 2499 382 2483 346L2482 346L2482 694L2338 683L2338 652C2408 652 2416 645 2416 596L2416 76C2416 31 2405 31 2338 31ZM3230 452L3255 452C3269 613 3284 646 3435 646C3453 646 3479 646 3489 644C3510 640 3510 629 3510 606L3510 79C3510 45 3510 31 3405 31L3365 31L3365 0C3406 3 3508 3 3554 3C3600 3 3703 3 3744 0L3744 31L3704 31C3599 31 3599 45 3599 79L3599 606C3599 626 3599 640 3617 644C3628 646 3655 646 3674 646C3825 646 3840 613 3854 452L3879 452L3860 677L3249 677ZM3875 95C3875 14 3972 -11 4035 -11C4101 -11 4147 29 4166 76C4170 36 4197 -6 4244 -6C4265 -6 4326 8 4326 89L4326 145L4301 145L4301 89C4301 31 4276 25 4265 25C4232 25 4228 70 4228 75L4228 275C4228 317 4228 356 4192 393C4153 432 4103 448 4055 448C3973 448 3904 401 3904 335C3904 305 3924 288 3950 288C3978 288 3996 308 3996 334C3996 346 3991 379 3945 380C3972 415 4021 426 4053 426C4102 426 4159 387 4159 298L4159 261C4108 258 4038 255 3975 225C3900 191 3875 139 3875 95ZM3952 96C3952 151 3994 234 4159 240L4159 140C4159 45 4087 11 4042 11C3993 11 3952 46 3952 96ZM4361 0C4400 1 4447 3 4475 3C4515 3 4562 3 4602 0L4602 31L4581 31C4507 31 4505 42 4505 78L4505 232C4505 331 4547 420 4623 420C4630 420 4632 420 4634 419C4631 418 4611 406 4611 380C4611 352 4632 337 4654 337C4672 337 4697 349 4697 381C4697 413 4666 442 4623 442C4550 442 4514 375 4500 332L4500 442L4361 431L4361 400C4431 400 4439 393 4439 344L4439 76C4439 31 4428 31 4361 31ZM4752 -79C4752 -151 4851 -206 4973 -206C5091 -206 5195 -155 5195 -77C5195 -42 5181 9 5130 37C5077 65 5019 65 4958 65C4933 65 4890 65 4883 66C4851 70 4830 101 4830 133C4830 137 4830 160 4847 180C4886 152 4927 149 4946 149C5039 149 5108 218 5108 295C5108 332 5092 369 5067 392C5103 426 5139 431 5157 431C5159 431 5164 431 5167 430C5156 426 5151 415 5151 403C5151 386 5164 374 5180 374C5190 374 5209 381 5209 404C5209 421 5197 453 5158 453C5138 453 5094 447 5052 406C5010 439 4968 442 4946 442C4853 442 4784 373 4784 296C4784 252 4806 214 4831 193C4818 178 4800 145 4800 110C4800 79 4813 41 4844 21C4784 4 4752 -39 4752 -79ZM4804 -79C4804 -33 4842 4 4886 7L4945 7C5031 7 5143 7 5143 -79C5143 -133 5072 -183 4974 -183C4873 -183 4804 -132 4804 -79ZM4859 295C4859 322 4860 354 4875 379C4883 391 4906 419 4946 419C5033 419 5033 319 5033 296C5033 269 5032 237 5017 212C5009 200 4986 172 4946 172C4859 172 4859 272 4859 295ZM5252 220C5252 86 5357 -11 5472 -11C5594 -11 5639 100 5639 119C5639 129 5631 131 5626 131C5617 131 5615 125 5613 117C5578 14 5488 14 5478 14C5428 14 5388 44 5365 81C5335 129 5335 195 5335 231L5614 231C5636 231 5639 231 5639 252C5639 351 5585 448 5460 448C5344 448 5252 345 5252 220ZM5336 252C5342 401 5426 426 5460 426C5563 426 5573 291 5573 252ZM5687 400L5772 400L5772 124C5772 1 5865 -11 5901 -11C5972 -11 6000 60 6000 124L6000 181L5975 181L5975 126C5975 52 5945 14 5908 14C5841 14 5841 105 5841 122L5841 400L5984 400L5984 431L5841 431L5841 615L5816 615C5815 533 5785 426 5687 422Z" stroke="rgb(255,255,255)" stroke-opacity="1" stroke-width="8" fill="rgb(255,255,255)" fill-opacity="1"></path></g></g></g></g></svg>
</svg>
