<?xml version="1.0" encoding="UTF-8" standalone="no"?>
<svg
   xmlns:dc="http://purl.org/dc/elements/1.1/"
   xmlns:cc="http://creativecommons.org/ns#"
   xmlns:rdf="http://www.w3.org/1999/02/22-rdf-syntax-ns#"
   xmlns:svg="http://www.w3.org/2000/svg"
   xmlns="http://www.w3.org/2000/svg"
   viewBox="0 0 744.74933 476.224"
   height="476.224"
   width="744.74933"
   xml:space="preserve"
   id="svg2"
   version="1.1"><metadata
     id="metadata8"><rdf:RDF><cc:Work
         rdf:about=""><dc:format>image/svg+xml</dc:format><dc:type
           rdf:resource="http://purl.org/dc/dcmitype/StillImage" /></cc:Work></rdf:RDF></metadata><defs
     id="defs6" /><g
     transform="matrix(1.3333333,0,0,-1.3333333,0,476.224)"
     id="g10"><g
       transform="translate(295.859,332.589)"
       id="g12"><g
         id="g14"><g
           id="g16"><g
             id="g18"><g
               id="g20"><g
                 id="g22"><g
                   id="g24"><path
                     id="path26"
                     style="fill:none;stroke:#ffffff;stroke-width:0.3985;stroke-linecap:butt;stroke-linejoin:miter;stroke-miterlimit:10;stroke-dasharray:none;stroke-opacity:1"
                     d="M 17.00807,2.39102 C 17.00807,11.78444 9.39342,19.3991 0,19.3991 c -9.39342,0 -17.00807,-7.61466 -17.00807,-17.00808 0,-9.39342 7.61465,-17.00807 17.00807,-17.00807 9.39342,0 17.00807,7.61465 17.00807,17.00807 z" /></g><g
                   transform="translate(-9.962)"
                   id="g28"><g
                     id="g30"><g
                       transform="translate(-285.897,-332.589)"
                       id="g32"><text
                         id="text36"
                         style="font-variant:normal;font-weight:normal;font-size:9.96259975px;font-family:CMR10;-inkscape-font-specification:CMR10;writing-mode:lr-tb;fill:#ffffff;fill-opacity:1;fill-rule:nonzero;stroke:none"
                         transform="matrix(1,0,0,-1,285.897,332.589)"><tspan
                           id="tspan34"
                           y="0"
                           x="0 4.9812999 9.9625998 14.9439">1–12</tspan></text>
<g
                         transform="translate(285.897,332.589)"
                         id="g38" /></g></g><g
                     transform="translate(9.962)"
                     id="g40" /></g></g></g></g><g
             transform="translate(-136.811,-76.934)"
             id="g42"><g
               id="g44"><g
                 id="g46"><g
                   id="g48"><path
                     id="path50"
                     style="fill:none;stroke:#ffffff;stroke-width:0.3985;stroke-linecap:butt;stroke-linejoin:miter;stroke-miterlimit:10;stroke-dasharray:none;stroke-opacity:1"
                     d="M 17.00807,2.39102 C 17.00807,11.78444 9.39342,19.3991 0,19.3991 c -9.39342,0 -17.00807,-7.61466 -17.00807,-17.00808 0,-9.39342 7.61465,-17.00807 17.00807,-17.00807 9.39342,0 17.00807,7.61465 17.00807,17.00807 z" /></g><g
                   transform="translate(-7.472)"
                   id="g52"><g
                     id="g54"><g
                       transform="translate(-151.576,-255.655)"
                       id="g56"><text
                         id="text60"
                         style="font-variant:normal;font-weight:normal;font-size:9.96259975px;font-family:CMR10;-inkscape-font-specification:CMR10;writing-mode:lr-tb;fill:#ffffff;fill-opacity:1;fill-rule:nonzero;stroke:none"
                         transform="matrix(1,0,0,-1,151.576,255.655)"><tspan
                           id="tspan58"
                           y="0"
                           x="0 4.9812999 9.9625998">1–6</tspan></text>
<g
                         transform="translate(151.576,255.655)"
                         id="g62" /></g></g><g
                     transform="translate(7.472)"
                     id="g64" /></g></g></g><g
               transform="translate(136.811,76.934)"
               id="g66" /></g><g
             transform="translate(-205.241,-153.868)"
             id="g68"><g
               id="g70"><g
                 id="g72"><g
                   id="g74"><path
                     id="path76"
                     style="fill:none;stroke:#ffffff;stroke-width:0.3985;stroke-linecap:butt;stroke-linejoin:miter;stroke-miterlimit:10;stroke-dasharray:none;stroke-opacity:1"
                     d="M 17.00807,2.39102 C 17.00807,11.78444 9.39342,19.3991 0,19.3991 c -9.39342,0 -17.00807,-7.61466 -17.00807,-17.00808 0,-9.39342 7.61465,-17.00807 17.00807,-17.00807 9.39342,0 17.00807,7.61465 17.00807,17.00807 z" /></g><g
                   transform="translate(-7.472)"
                   id="g78"><g
                     id="g80"><g
                       transform="translate(-83.146,-178.721)"
                       id="g82"><text
                         id="text86"
                         style="font-variant:normal;font-weight:normal;font-size:9.96259975px;font-family:CMR10;-inkscape-font-specification:CMR10;writing-mode:lr-tb;fill:#ffffff;fill-opacity:1;fill-rule:nonzero;stroke:none"
                         transform="matrix(1,0,0,-1,83.146,178.721)"><tspan
                           id="tspan84"
                           y="0"
                           x="0 4.9812999 9.9625998">1–3</tspan></text>
<g
                         transform="translate(83.146,178.721)"
                         id="g88" /></g></g><g
                     transform="translate(7.472)"
                     id="g90" /></g></g></g><g
               transform="translate(205.241,153.868)"
               id="g92" /></g><g
             transform="translate(-239.456,-230.802)"
             id="g94"><g
               id="g96"><g
                 id="g98"><g
                   id="g100"><path
                     id="path102"
                     style="fill:none;stroke:#ffffff;stroke-width:0.3985;stroke-linecap:butt;stroke-linejoin:miter;stroke-miterlimit:10;stroke-dasharray:none;stroke-opacity:1"
                     d="M 17.00807,2.39102 C 17.00807,11.78444 9.39342,19.3991 0,19.3991 c -9.39342,0 -17.00807,-7.61466 -17.00807,-17.00808 0,-9.39342 7.61465,-17.00807 17.00807,-17.00807 9.39342,0 17.00807,7.61465 17.00807,17.00807 z" /></g><g
                   transform="translate(-7.472)"
                   id="g104"><g
                     id="g106"><g
                       transform="translate(-48.931,-101.787)"
                       id="g108"><text
                         id="text112"
                         style="font-variant:normal;font-weight:normal;font-size:9.96259975px;font-family:CMR10;-inkscape-font-specification:CMR10;writing-mode:lr-tb;fill:#ffffff;fill-opacity:1;fill-rule:nonzero;stroke:none"
                         transform="matrix(1,0,0,-1,48.931,101.787)"><tspan
                           id="tspan110"
                           y="0"
                           x="0 4.9812999 9.9625998">1–2</tspan></text>
<g
                         transform="translate(48.931,101.787)"
                         id="g114" /></g></g><g
                     transform="translate(7.472)"
                     id="g116" /></g></g></g><g
               transform="translate(239.456,230.802)"
               id="g118" /></g><g
             transform="translate(-273.671,-307.736)"
             id="g120"><g
               id="g122"><g
                 id="g124"><g
                   id="g126"><path
                     id="path128"
                     style="fill:none;stroke:#ffffff;stroke-width:0.3985;stroke-linecap:butt;stroke-linejoin:miter;stroke-miterlimit:10;stroke-dasharray:none;stroke-opacity:1"
                     d="M 17.00807,2.39102 C 17.00807,11.78444 9.39342,19.3991 0,19.3991 c -9.39342,0 -17.00807,-7.61466 -17.00807,-17.00808 0,-9.39342 7.61465,-17.00807 17.00807,-17.00807 9.39342,0 17.00807,7.61465 17.00807,17.00807 z" /></g><g
                   transform="translate(-2.49)"
                   id="g130"><g
                     id="g132"><g
                       transform="translate(-19.698,-24.853)"
                       id="g134"><text
                         id="text138"
                         style="font-variant:normal;font-weight:normal;font-size:9.96259975px;font-family:CMR10;-inkscape-font-specification:CMR10;writing-mode:lr-tb;fill:#ffffff;fill-opacity:1;fill-rule:nonzero;stroke:none"
                         transform="matrix(1,0,0,-1,19.698,24.853)"><tspan
                           id="tspan136"
                           y="0"
                           x="0">1</tspan></text>
<g
                         transform="translate(19.698,24.853)"
                         id="g140" /></g></g><g
                     transform="translate(2.49)"
                     id="g142" /></g></g></g><g
               transform="translate(273.671,307.736)"
               id="g144" /></g><g
             transform="translate(-205.241,-307.736)"
             id="g146"><g
               id="g148"><g
                 id="g150"><g
                   id="g152"><path
                     id="path154"
                     style="fill:none;stroke:#ffffff;stroke-width:0.3985;stroke-linecap:butt;stroke-linejoin:miter;stroke-miterlimit:10;stroke-dasharray:none;stroke-opacity:1"
                     d="M 17.00807,2.39102 C 17.00807,11.78444 9.39342,19.3991 0,19.3991 c -9.39342,0 -17.00807,-7.61466 -17.00807,-17.00808 0,-9.39342 7.61465,-17.00807 17.00807,-17.00807 9.39342,0 17.00807,7.61465 17.00807,17.00807 z" /></g><g
                   transform="translate(-2.49)"
                   id="g156"><g
                     id="g158"><g
                       transform="translate(-88.128,-24.853)"
                       id="g160"><text
                         id="text164"
                         style="font-variant:normal;font-weight:normal;font-size:9.96259975px;font-family:CMR10;-inkscape-font-specification:CMR10;writing-mode:lr-tb;fill:#ffffff;fill-opacity:1;fill-rule:nonzero;stroke:none"
                         transform="matrix(1,0,0,-1,88.128,24.853)"><tspan
                           id="tspan162"
                           y="0"
                           x="0">2</tspan></text>
<g
                         transform="translate(88.128,24.853)"
                         id="g166" /></g></g><g
                     transform="translate(2.49)"
                     id="g168" /></g></g></g><g
               transform="translate(205.241,307.736)"
               id="g170" /></g><g
             transform="translate(-171.026,-230.802)"
             id="g172"><g
               id="g174"><g
                 id="g176"><g
                   id="g178"><path
                     id="path180"
                     style="fill:none;stroke:#ffffff;stroke-width:0.3985;stroke-linecap:butt;stroke-linejoin:miter;stroke-miterlimit:10;stroke-dasharray:none;stroke-opacity:1"
                     d="M 17.00807,2.39102 C 17.00807,11.78444 9.39342,19.3991 0,19.3991 c -9.39342,0 -17.00807,-7.61466 -17.00807,-17.00808 0,-9.39342 7.61465,-17.00807 17.00807,-17.00807 9.39342,0 17.00807,7.61465 17.00807,17.00807 z" /></g><g
                   transform="translate(-2.49)"
                   id="g182"><g
                     id="g184"><g
                       transform="translate(-122.343,-101.787)"
                       id="g186"><text
                         id="text190"
                         style="font-variant:normal;font-weight:normal;font-size:9.96259975px;font-family:CMR10;-inkscape-font-specification:CMR10;writing-mode:lr-tb;fill:#ffffff;fill-opacity:1;fill-rule:nonzero;stroke:none"
                         transform="matrix(1,0,0,-1,122.343,101.787)"><tspan
                           id="tspan188"
                           y="0"
                           x="0">3</tspan></text>
<g
                         transform="translate(122.343,101.787)"
                         id="g192" /></g></g><g
                     transform="translate(2.49)"
                     id="g194" /></g></g></g><g
               transform="translate(171.026,230.802)"
               id="g196" /></g><g
             transform="translate(-68.381,-153.868)"
             id="g198"><g
               id="g200"><g
                 id="g202"><g
                   id="g204"><path
                     id="path206"
                     style="fill:none;stroke:#ffffff;stroke-width:0.3985;stroke-linecap:butt;stroke-linejoin:miter;stroke-miterlimit:10;stroke-dasharray:none;stroke-opacity:1"
                     d="M 17.00807,2.39102 C 17.00807,11.78444 9.39342,19.3991 0,19.3991 c -9.39342,0 -17.00807,-7.61466 -17.00807,-17.00808 0,-9.39342 7.61465,-17.00807 17.00807,-17.00807 9.39342,0 17.00807,7.61465 17.00807,17.00807 z" /></g><g
                   transform="translate(-7.472)"
                   id="g208"><g
                     id="g210"><g
                       transform="translate(-220.006,-178.721)"
                       id="g212"><text
                         id="text216"
                         style="font-variant:normal;font-weight:normal;font-size:9.96259975px;font-family:CMR10;-inkscape-font-specification:CMR10;writing-mode:lr-tb;fill:#ffffff;fill-opacity:1;fill-rule:nonzero;stroke:none"
                         transform="matrix(1,0,0,-1,220.006,178.721)"><tspan
                           id="tspan214"
                           y="0"
                           x="0 4.9812999 9.9625998">4–6</tspan></text>
<g
                         transform="translate(220.006,178.721)"
                         id="g218" /></g></g><g
                     transform="translate(7.472)"
                     id="g220" /></g></g></g><g
               transform="translate(68.381,153.868)"
               id="g222" /></g><g
             transform="translate(-102.596,-230.802)"
             id="g224"><g
               id="g226"><g
                 id="g228"><g
                   id="g230"><path
                     id="path232"
                     style="fill:none;stroke:#ffffff;stroke-width:0.3985;stroke-linecap:butt;stroke-linejoin:miter;stroke-miterlimit:10;stroke-dasharray:none;stroke-opacity:1"
                     d="M 17.00807,2.39102 C 17.00807,11.78444 9.39342,19.3991 0,19.3991 c -9.39342,0 -17.00807,-7.61466 -17.00807,-17.00808 0,-9.39342 7.61465,-17.00807 17.00807,-17.00807 9.39342,0 17.00807,7.61465 17.00807,17.00807 z" /></g><g
                   transform="translate(-7.472)"
                   id="g234"><g
                     id="g236"><g
                       transform="translate(-185.791,-101.787)"
                       id="g238"><text
                         id="text242"
                         style="font-variant:normal;font-weight:normal;font-size:9.96259975px;font-family:CMR10;-inkscape-font-specification:CMR10;writing-mode:lr-tb;fill:#ffffff;fill-opacity:1;fill-rule:nonzero;stroke:none"
                         transform="matrix(1,0,0,-1,185.791,101.787)"><tspan
                           id="tspan240"
                           y="0"
                           x="0 4.9812999 9.9625998">4–5</tspan></text>
<g
                         transform="translate(185.791,101.787)"
                         id="g244" /></g></g><g
                     transform="translate(7.472)"
                     id="g246" /></g></g></g><g
               transform="translate(102.596,230.802)"
               id="g248" /></g><g
             transform="translate(-136.811,-307.736)"
             id="g250"><g
               id="g252"><g
                 id="g254"><g
                   id="g256"><path
                     id="path258"
                     style="fill:none;stroke:#ffffff;stroke-width:0.3985;stroke-linecap:butt;stroke-linejoin:miter;stroke-miterlimit:10;stroke-dasharray:none;stroke-opacity:1"
                     d="M 17.00807,2.39102 C 17.00807,11.78444 9.39342,19.3991 0,19.3991 c -9.39342,0 -17.00807,-7.61466 -17.00807,-17.00808 0,-9.39342 7.61465,-17.00807 17.00807,-17.00807 9.39342,0 17.00807,7.61465 17.00807,17.00807 z" /></g><g
                   transform="translate(-2.491)"
                   id="g260"><g
                     id="g262"><g
                       transform="translate(-156.557,-24.853)"
                       id="g264"><text
                         id="text268"
                         style="font-variant:normal;font-weight:normal;font-size:9.96259975px;font-family:CMR10;-inkscape-font-specification:CMR10;writing-mode:lr-tb;fill:#ffffff;fill-opacity:1;fill-rule:nonzero;stroke:none"
                         transform="matrix(1,0,0,-1,156.558,24.853)"><tspan
                           id="tspan266"
                           y="0"
                           x="0">4</tspan></text>
<g
                         transform="translate(156.558,24.853)"
                         id="g270" /></g></g><g
                     transform="translate(2.49)"
                     id="g272" /></g></g></g><g
               transform="translate(136.811,307.736)"
               id="g274" /></g><g
             transform="translate(-68.381,-307.736)"
             id="g276"><g
               id="g278"><g
                 id="g280"><g
                   id="g282"><path
                     id="path284"
                     style="fill:none;stroke:#ffffff;stroke-width:0.3985;stroke-linecap:butt;stroke-linejoin:miter;stroke-miterlimit:10;stroke-dasharray:none;stroke-opacity:1"
                     d="M 17.00807,2.39102 C 17.00807,11.78444 9.39342,19.3991 0,19.3991 c -9.39342,0 -17.00807,-7.61466 -17.00807,-17.00808 0,-9.39342 7.61465,-17.00807 17.00807,-17.00807 9.39342,0 17.00807,7.61465 17.00807,17.00807 z" /></g><g
                   transform="translate(-2.491)"
                   id="g286"><g
                     id="g288"><g
                       transform="translate(-224.987,-24.853)"
                       id="g290"><text
                         id="text294"
                         style="font-variant:normal;font-weight:normal;font-size:9.96259975px;font-family:CMR10;-inkscape-font-specification:CMR10;writing-mode:lr-tb;fill:#ffffff;fill-opacity:1;fill-rule:nonzero;stroke:none"
                         transform="matrix(1,0,0,-1,224.987,24.853)"><tspan
                           id="tspan292"
                           y="0"
                           x="0">5</tspan></text>
<g
                         transform="translate(224.987,24.853)"
                         id="g296" /></g></g><g
                     transform="translate(2.491)"
                     id="g298" /></g></g></g><g
               transform="translate(68.381,307.736)"
               id="g300" /></g><g
             transform="translate(-34.166,-230.802)"
             id="g302"><g
               id="g304"><g
                 id="g306"><g
                   id="g308"><path
                     id="path310"
                     style="fill:none;stroke:#ffffff;stroke-width:0.3985;stroke-linecap:butt;stroke-linejoin:miter;stroke-miterlimit:10;stroke-dasharray:none;stroke-opacity:1"
                     d="M 17.00807,2.39102 C 17.00807,11.78444 9.39342,19.3991 0,19.3991 c -9.39342,0 -17.00807,-7.61466 -17.00807,-17.00808 0,-9.39342 7.61465,-17.00807 17.00807,-17.00807 9.39342,0 17.00807,7.61465 17.00807,17.00807 z" /></g><g
                   transform="translate(-2.491)"
                   id="g312"><g
                     id="g314"><g
                       transform="translate(-259.202,-101.787)"
                       id="g316"><text
                         id="text320"
                         style="font-variant:normal;font-weight:normal;font-size:9.96259975px;font-family:CMR10;-inkscape-font-specification:CMR10;writing-mode:lr-tb;fill:#ffffff;fill-opacity:1;fill-rule:nonzero;stroke:none"
                         transform="matrix(1,0,0,-1,259.202,101.787)"><tspan
                           id="tspan318"
                           y="0"
                           x="0">6</tspan></text>
<g
                         transform="translate(259.202,101.787)"
                         id="g322" /></g></g><g
                     transform="translate(2.491)"
                     id="g324" /></g></g></g><g
               transform="translate(34.166,230.802)"
               id="g326" /></g><g
             transform="translate(136.811,-76.934)"
             id="g328"><g
               id="g330"><g
                 id="g332"><g
                   id="g334"><path
                     id="path336"
                     style="fill:none;stroke:#ffffff;stroke-width:0.3985;stroke-linecap:butt;stroke-linejoin:miter;stroke-miterlimit:10;stroke-dasharray:none;stroke-opacity:1"
                     d="M 17.00807,2.39102 C 17.00807,11.78444 9.39342,19.3991 0,19.3991 c -9.39342,0 -17.00807,-7.61466 -17.00807,-17.00808 0,-9.39342 7.61465,-17.00807 17.00807,-17.00807 9.39342,0 17.00807,7.61465 17.00807,17.00807 z" /></g><g
                   transform="translate(-9.962)"
                   id="g338"><g
                     id="g340"><g
                       transform="translate(-422.708,-255.655)"
                       id="g342"><text
                         id="text346"
                         style="font-variant:normal;font-weight:normal;font-size:9.96259975px;font-family:CMR10;-inkscape-font-specification:CMR10;writing-mode:lr-tb;fill:#ffffff;fill-opacity:1;fill-rule:nonzero;stroke:none"
                         transform="matrix(1,0,0,-1,422.708,255.655)"><tspan
                           id="tspan344"
                           y="0"
                           x="0 4.9812999 9.9625998 14.9439">7–12</tspan></text>
<g
                         transform="translate(422.708,255.655)"
                         id="g348" /></g></g><g
                     transform="translate(9.962)"
                     id="g350" /></g></g></g><g
               transform="translate(-136.811,76.934)"
               id="g352" /></g><g
             transform="translate(67.956,-155.132)"
             id="g354"><g
               id="g356"><g
                 id="g358"><g
                   id="g360"><path
                     id="path362"
                     style="fill:none;stroke:#ffffff;stroke-width:0.3985;stroke-linecap:butt;stroke-linejoin:miter;stroke-miterlimit:10;stroke-dasharray:none;stroke-opacity:1"
                     d="M 17.00807,2.39102 C 17.00807,11.78444 9.39342,19.3991 0,19.3991 c -9.39342,0 -17.00807,-7.61466 -17.00807,-17.00808 0,-9.39342 7.61465,-17.00807 17.00807,-17.00807 9.39342,0 17.00807,7.61465 17.00807,17.00807 z" /></g><g
                   transform="translate(-7.472)"
                   id="g364"><g
                     id="g366"><g
                       transform="translate(-356.343,-177.457)"
                       id="g368"><text
                         id="text372"
                         style="font-variant:normal;font-weight:normal;font-size:9.96259975px;font-family:CMR10;-inkscape-font-specification:CMR10;writing-mode:lr-tb;fill:#ffffff;fill-opacity:1;fill-rule:nonzero;stroke:none"
                         transform="matrix(1,0,0,-1,356.343,177.457)"><tspan
                           id="tspan370"
                           y="0"
                           x="0 4.9812999 9.9625998">7–9</tspan></text>
<g
                         transform="translate(356.343,177.457)"
                         id="g374" /></g></g><g
                     transform="translate(7.472)"
                     id="g376" /></g></g></g><g
               transform="translate(-67.956,155.132)"
               id="g378" /></g><g
             transform="translate(33.741,-232.066)"
             id="g380"><g
               id="g382"><g
                 id="g384"><g
                   id="g386"><path
                     id="path388"
                     style="fill:none;stroke:#ffffff;stroke-width:0.3985;stroke-linecap:butt;stroke-linejoin:miter;stroke-miterlimit:10;stroke-dasharray:none;stroke-opacity:1"
                     d="M 17.00807,2.39102 C 17.00807,11.78444 9.39342,19.3991 0,19.3991 c -9.39342,0 -17.00807,-7.61466 -17.00807,-17.00808 0,-9.39342 7.61465,-17.00807 17.00807,-17.00807 9.39342,0 17.00807,7.61465 17.00807,17.00807 z" /></g><g
                   transform="translate(-7.472)"
                   id="g390"><g
                     id="g392"><g
                       transform="translate(-322.128,-100.523)"
                       id="g394"><text
                         id="text398"
                         style="font-variant:normal;font-weight:normal;font-size:9.96259975px;font-family:CMR10;-inkscape-font-specification:CMR10;writing-mode:lr-tb;fill:#ffffff;fill-opacity:1;fill-rule:nonzero;stroke:none"
                         transform="matrix(1,0,0,-1,322.128,100.523)"><tspan
                           id="tspan396"
                           y="0"
                           x="0 4.9812999 9.9625998">7–8</tspan></text>
<g
                         transform="translate(322.128,100.523)"
                         id="g400" /></g></g><g
                     transform="translate(7.472)"
                     id="g402" /></g></g></g><g
               transform="translate(-33.741,232.066)"
               id="g404" /></g><g
             transform="translate(-0.474,-309)"
             id="g406"><g
               id="g408"><g
                 id="g410"><g
                   id="g412"><path
                     id="path414"
                     style="fill:none;stroke:#ffffff;stroke-width:0.3985;stroke-linecap:butt;stroke-linejoin:miter;stroke-miterlimit:10;stroke-dasharray:none;stroke-opacity:1"
                     d="M 17.00807,2.39102 C 17.00807,11.78444 9.39342,19.3991 0,19.3991 c -9.39342,0 -17.00807,-7.61466 -17.00807,-17.00808 0,-9.39342 7.61465,-17.00807 17.00807,-17.00807 9.39342,0 17.00807,7.61465 17.00807,17.00807 z" /></g><g
                   transform="translate(-2.491)"
                   id="g416"><g
                     id="g418"><g
                       transform="translate(-292.894,-23.589)"
                       id="g420"><text
                         id="text424"
                         style="font-variant:normal;font-weight:normal;font-size:9.96259975px;font-family:CMR10;-inkscape-font-specification:CMR10;writing-mode:lr-tb;fill:#ffffff;fill-opacity:1;fill-rule:nonzero;stroke:none"
                         transform="matrix(1,0,0,-1,292.894,23.589)"><tspan
                           id="tspan422"
                           y="0"
                           x="0">7</tspan></text>
<g
                         transform="translate(292.894,23.589)"
                         id="g426" /></g></g><g
                     transform="translate(2.491)"
                     id="g428" /></g></g></g><g
               transform="translate(0.474,309)"
               id="g430" /></g><g
             transform="translate(67.956,-309)"
             id="g432"><g
               id="g434"><g
                 id="g436"><g
                   id="g438"><path
                     id="path440"
                     style="fill:none;stroke:#ffffff;stroke-width:0.3985;stroke-linecap:butt;stroke-linejoin:miter;stroke-miterlimit:10;stroke-dasharray:none;stroke-opacity:1"
                     d="M 17.00807,2.39102 C 17.00807,11.78444 9.39342,19.3991 0,19.3991 c -9.39342,0 -17.00807,-7.61466 -17.00807,-17.00808 0,-9.39342 7.61465,-17.00807 17.00807,-17.00807 9.39342,0 17.00807,7.61465 17.00807,17.00807 z" /></g><g
                   transform="translate(-2.491)"
                   id="g442"><g
                     id="g444"><g
                       transform="translate(-361.324,-23.589)"
                       id="g446"><text
                         id="text450"
                         style="font-variant:normal;font-weight:normal;font-size:9.96259975px;font-family:CMR10;-inkscape-font-specification:CMR10;writing-mode:lr-tb;fill:#ffffff;fill-opacity:1;fill-rule:nonzero;stroke:none"
                         transform="matrix(1,0,0,-1,361.324,23.589)"><tspan
                           id="tspan448"
                           y="0"
                           x="0">8</tspan></text>
<g
                         transform="translate(361.324,23.589)"
                         id="g452" /></g></g><g
                     transform="translate(2.491)"
                     id="g454" /></g></g></g><g
               transform="translate(-67.956,309)"
               id="g456" /></g><g
             transform="translate(102.171,-232.066)"
             id="g458"><g
               id="g460"><g
                 id="g462"><g
                   id="g464"><path
                     id="path466"
                     style="fill:none;stroke:#ffffff;stroke-width:0.3985;stroke-linecap:butt;stroke-linejoin:miter;stroke-miterlimit:10;stroke-dasharray:none;stroke-opacity:1"
                     d="M 17.00807,2.39102 C 17.00807,11.78444 9.39342,19.3991 0,19.3991 c -9.39342,0 -17.00807,-7.61466 -17.00807,-17.00808 0,-9.39342 7.61465,-17.00807 17.00807,-17.00807 9.39342,0 17.00807,7.61465 17.00807,17.00807 z" /></g><g
                   transform="translate(-2.491)"
                   id="g468"><g
                     id="g470"><g
                       transform="translate(-395.539,-100.523)"
                       id="g472"><text
                         id="text476"
                         style="font-variant:normal;font-weight:normal;font-size:9.96259975px;font-family:CMR10;-inkscape-font-specification:CMR10;writing-mode:lr-tb;fill:#ffffff;fill-opacity:1;fill-rule:nonzero;stroke:none"
                         transform="matrix(1,0,0,-1,395.539,100.523)"><tspan
                           id="tspan474"
                           y="0"
                           x="0">9</tspan></text>
<g
                         transform="translate(395.539,100.523)"
                         id="g478" /></g></g><g
                     transform="translate(2.491)"
                     id="g480" /></g></g></g><g
               transform="translate(-102.171,232.066)"
               id="g482" /></g><g
             transform="translate(205.667,-155.132)"
             id="g484"><g
               id="g486"><g
                 id="g488"><g
                   id="g490"><path
                     id="path492"
                     style="fill:none;stroke:#ffffff;stroke-width:0.3985;stroke-linecap:butt;stroke-linejoin:miter;stroke-miterlimit:10;stroke-dasharray:none;stroke-opacity:1"
                     d="m 18.27203,2.39102 c 0,10.09149 -8.18054,18.27205 -18.27203,18.27205 -10.09149,0 -18.27203,-8.18056 -18.27203,-18.27205 0,-10.09149 8.18054,-18.27203 18.27203,-18.27203 10.09149,0 18.27203,8.18054 18.27203,18.27203 z" /></g><g
                   transform="translate(-12.453)"
                   id="g494"><g
                     id="g496"><g
                       transform="translate(-489.073,-177.457)"
                       id="g498"><text
                         id="text502"
                         style="font-variant:normal;font-weight:normal;font-size:9.96259975px;font-family:CMR10;-inkscape-font-specification:CMR10;writing-mode:lr-tb;fill:#ffffff;fill-opacity:1;fill-rule:nonzero;stroke:none"
                         transform="matrix(1,0,0,-1,489.073,177.457)"><tspan
                           id="tspan500"
                           y="0"
                           x="0 4.9812999 9.9625998 14.9439 19.9252">10–12</tspan></text>
<g
                         transform="translate(489.073,177.457)"
                         id="g504" /></g></g><g
                     transform="translate(12.453)"
                     id="g506" /></g></g></g><g
               transform="translate(-205.667,155.132)"
               id="g508" /></g><g
             transform="translate(170.82,-234.594)"
             id="g510"><g
               id="g512"><g
                 id="g514"><g
                   id="g516"><path
                     id="path518"
                     style="fill:none;stroke:#ffffff;stroke-width:0.3985;stroke-linecap:butt;stroke-linejoin:miter;stroke-miterlimit:10;stroke-dasharray:none;stroke-opacity:1"
                     d="m 18.27203,2.39102 c 0,10.09149 -8.18054,18.27205 -18.27203,18.27205 -10.09149,0 -18.27203,-8.18056 -18.27203,-18.27205 0,-10.09149 8.18054,-18.27203 18.27203,-18.27203 10.09149,0 18.27203,8.18054 18.27203,18.27203 z" /></g><g
                   transform="translate(-12.453)"
                   id="g520"><g
                     id="g522"><g
                       transform="translate(-454.226,-97.995)"
                       id="g524"><text
                         id="text528"
                         style="font-variant:normal;font-weight:normal;font-size:9.96259975px;font-family:CMR10;-inkscape-font-specification:CMR10;writing-mode:lr-tb;fill:#ffffff;fill-opacity:1;fill-rule:nonzero;stroke:none"
                         transform="matrix(1,0,0,-1,454.226,97.995)"><tspan
                           id="tspan526"
                           y="0"
                           x="0 4.9812999 9.9625998 14.9439 19.9252">10–11</tspan></text>
<g
                         transform="translate(454.226,97.995)"
                         id="g530" /></g></g><g
                     transform="translate(12.453)"
                     id="g532" /></g></g></g><g
               transform="translate(-170.82,234.594)"
               id="g534" /></g><g
             transform="translate(136.605,-312.792)"
             id="g536"><g
               id="g538"><g
                 id="g540"><g
                   id="g542"><path
                     id="path544"
                     style="fill:none;stroke:#ffffff;stroke-width:0.3985;stroke-linecap:butt;stroke-linejoin:miter;stroke-miterlimit:10;stroke-dasharray:none;stroke-opacity:1"
                     d="M 17.00807,2.39102 C 17.00807,11.78444 9.39342,19.3991 0,19.3991 c -9.39342,0 -17.00807,-7.61466 -17.00807,-17.00808 0,-9.39342 7.61465,-17.00807 17.00807,-17.00807 9.39342,0 17.00807,7.61465 17.00807,17.00807 z" /></g><g
                   transform="translate(-4.981)"
                   id="g546"><g
                     id="g548"><g
                       transform="translate(-427.483,-19.797)"
                       id="g550"><text
                         id="text554"
                         style="font-variant:normal;font-weight:normal;font-size:9.96259975px;font-family:CMR10;-inkscape-font-specification:CMR10;writing-mode:lr-tb;fill:#ffffff;fill-opacity:1;fill-rule:nonzero;stroke:none"
                         transform="matrix(1,0,0,-1,427.483,19.797)"><tspan
                           id="tspan552"
                           y="0"
                           x="0 4.9812999">10</tspan></text>
<g
                         transform="translate(427.483,19.797)"
                         id="g556" /></g></g><g
                     transform="translate(4.981)"
                     id="g558" /></g></g></g><g
               transform="translate(-136.605,312.792)"
               id="g560" /></g><g
             transform="translate(205.035,-312.792)"
             id="g562"><g
               id="g564"><g
                 id="g566"><g
                   id="g568"><path
                     id="path570"
                     style="fill:none;stroke:#ffffff;stroke-width:0.3985;stroke-linecap:butt;stroke-linejoin:miter;stroke-miterlimit:10;stroke-dasharray:none;stroke-opacity:1"
                     d="M 17.00807,2.39102 C 17.00807,11.78444 9.39342,19.3991 0,19.3991 c -9.39342,0 -17.00807,-7.61466 -17.00807,-17.00808 0,-9.39342 7.61465,-17.00807 17.00807,-17.00807 9.39342,0 17.00807,7.61465 17.00807,17.00807 z" /></g><g
                   transform="translate(-4.981)"
                   id="g572"><g
                     id="g574"><g
                       transform="translate(-495.913,-19.797)"
                       id="g576"><text
                         id="text580"
                         style="font-variant:normal;font-weight:normal;font-size:9.96259975px;font-family:CMR10;-inkscape-font-specification:CMR10;writing-mode:lr-tb;fill:#ffffff;fill-opacity:1;fill-rule:nonzero;stroke:none"
                         transform="matrix(1,0,0,-1,495.913,19.797)"><tspan
                           id="tspan578"
                           y="0"
                           x="0 4.9812999">11</tspan></text>
<g
                         transform="translate(495.913,19.797)"
                         id="g582" /></g></g><g
                     transform="translate(4.981)"
                     id="g584" /></g></g></g><g
               transform="translate(-205.035,312.792)"
               id="g586" /></g><g
             transform="translate(240.514,-234.594)"
             id="g588"><g
               id="g590"><g
                 id="g592"><g
                   id="g594"><path
                     id="path596"
                     style="fill:none;stroke:#ffffff;stroke-width:0.3985;stroke-linecap:butt;stroke-linejoin:miter;stroke-miterlimit:10;stroke-dasharray:none;stroke-opacity:1"
                     d="M 17.00807,2.39102 C 17.00807,11.78444 9.39342,19.3991 0,19.3991 c -9.39342,0 -17.00807,-7.61466 -17.00807,-17.00808 0,-9.39342 7.61465,-17.00807 17.00807,-17.00807 9.39342,0 17.00807,7.61465 17.00807,17.00807 z" /></g><g
                   transform="translate(-4.981)"
                   id="g598"><g
                     id="g600"><g
                       transform="translate(-531.392,-97.995)"
                       id="g602"><text
                         id="text606"
                         style="font-variant:normal;font-weight:normal;font-size:9.96259975px;font-family:CMR10;-inkscape-font-specification:CMR10;writing-mode:lr-tb;fill:#ffffff;fill-opacity:1;fill-rule:nonzero;stroke:none"
                         transform="matrix(1,0,0,-1,531.392,97.995)"><tspan
                           id="tspan604"
                           y="0"
                           x="0 4.9812999">12</tspan></text>
<g
                         transform="translate(531.392,97.995)"
                         id="g608" /></g></g><g
                     transform="translate(4.981)"
                     id="g610" /></g></g></g><g
               transform="translate(-240.514,234.594)"
               id="g612" /></g><g
             id="g614"><path
               id="path616"
               style="fill:none;stroke:#ffffff;stroke-width:0.3985;stroke-linecap:butt;stroke-linejoin:miter;stroke-miterlimit:10;stroke-dasharray:none;stroke-opacity:1"
               d="m -14.99757,-6.04276 -106.81768,-60.0673" /></g><g
             id="g618"><path
               id="path620"
               style="fill:none;stroke:#ffffff;stroke-width:0.3985;stroke-linecap:butt;stroke-linejoin:miter;stroke-miterlimit:10;stroke-dasharray:none;stroke-opacity:1"
               d="m -148.24823,-87.40024 -45.56004,-51.2221" /></g><g
             id="g622"><path
               id="path624"
               style="fill:none;stroke:#ffffff;stroke-width:0.3985;stroke-linecap:butt;stroke-linejoin:miter;stroke-miterlimit:10;stroke-dasharray:none;stroke-opacity:1"
               d="m -212.2357,-167.201 -20.23136,-45.49036" /></g><g
             id="g626"><path
               id="path628"
               style="fill:none;stroke:#ffffff;stroke-width:0.3985;stroke-linecap:butt;stroke-linejoin:miter;stroke-miterlimit:10;stroke-dasharray:none;stroke-opacity:1"
               d="m -246.45114,-244.1359 -20.23134,-45.49035" /></g><g
             id="g630"><path
               id="path632"
               style="fill:none;stroke:#ffffff;stroke-width:0.3985;stroke-linecap:butt;stroke-linejoin:miter;stroke-miterlimit:10;stroke-dasharray:none;stroke-opacity:1"
               d="m -232.46706,-244.1359 20.23134,-45.49035" /></g><g
             id="g634"><path
               id="path636"
               style="fill:none;stroke:#ffffff;stroke-width:0.3985;stroke-linecap:butt;stroke-linejoin:miter;stroke-miterlimit:10;stroke-dasharray:none;stroke-opacity:1"
               d="m -198.25162,-167.201 20.23132,-45.49036" /></g><g
             id="g638"><path
               id="path640"
               style="fill:none;stroke:#ffffff;stroke-width:0.3985;stroke-linecap:butt;stroke-linejoin:miter;stroke-miterlimit:10;stroke-dasharray:none;stroke-opacity:1"
               d="m -125.37743,-87.40024 45.56005,-51.2221" /></g><g
             id="g642"><path
               id="path644"
               style="fill:none;stroke:#ffffff;stroke-width:0.3985;stroke-linecap:butt;stroke-linejoin:miter;stroke-miterlimit:10;stroke-dasharray:none;stroke-opacity:1"
               d="m -75.37404,-167.201 -20.23134,-45.49036" /></g><g
             id="g646"><path
               id="path648"
               style="fill:none;stroke:#ffffff;stroke-width:0.3985;stroke-linecap:butt;stroke-linejoin:miter;stroke-miterlimit:10;stroke-dasharray:none;stroke-opacity:1"
               d="m -109.58946,-244.1359 -20.23134,-45.49035" /></g><g
             id="g650"><path
               id="path652"
               style="fill:none;stroke:#ffffff;stroke-width:0.3985;stroke-linecap:butt;stroke-linejoin:miter;stroke-miterlimit:10;stroke-dasharray:none;stroke-opacity:1"
               d="m -95.60538,-244.1359 20.23133,-45.49035" /></g><g
             id="g654"><path
               id="path656"
               style="fill:none;stroke:#ffffff;stroke-width:0.3985;stroke-linecap:butt;stroke-linejoin:miter;stroke-miterlimit:10;stroke-dasharray:none;stroke-opacity:1"
               d="m -61.38994,-167.201 20.23132,-45.49036" /></g><g
             id="g658"><path
               id="path660"
               style="fill:none;stroke:#ffffff;stroke-width:0.3985;stroke-linecap:butt;stroke-linejoin:miter;stroke-miterlimit:10;stroke-dasharray:none;stroke-opacity:1"
               d="m 14.99757,-6.04276 106.81766,-60.0673" /></g><g
             id="g662"><path
               id="path664"
               style="fill:none;stroke:#ffffff;stroke-width:0.3985;stroke-linecap:butt;stroke-linejoin:miter;stroke-miterlimit:10;stroke-dasharray:none;stroke-opacity:1"
               d="M 125.44173,-87.45747 79.32726,-139.82909" /></g><g
             id="g666"><path
               id="path668"
               style="fill:none;stroke:#ffffff;stroke-width:0.3985;stroke-linecap:butt;stroke-linejoin:miter;stroke-miterlimit:10;stroke-dasharray:none;stroke-opacity:1"
               d="M 60.96414,-168.46497 40.7328,-213.95532" /></g><g
             id="g670"><path
               id="path672"
               style="fill:none;stroke:#ffffff;stroke-width:0.3985;stroke-linecap:butt;stroke-linejoin:miter;stroke-miterlimit:10;stroke-dasharray:none;stroke-opacity:1"
               d="M 26.7487,-245.39986 6.51736,-290.89021" /></g><g
             id="g674"><path
               id="path676"
               style="fill:none;stroke:#ffffff;stroke-width:0.3985;stroke-linecap:butt;stroke-linejoin:miter;stroke-miterlimit:10;stroke-dasharray:none;stroke-opacity:1"
               d="m 40.7328,-245.39986 20.23133,-45.49035" /></g><g
             id="g678"><path
               id="path680"
               style="fill:none;stroke:#ffffff;stroke-width:0.3985;stroke-linecap:butt;stroke-linejoin:miter;stroke-miterlimit:10;stroke-dasharray:none;stroke-opacity:1"
               d="m 74.94823,-168.46497 20.23132,-45.49035" /></g><g
             id="g682"><path
               id="path684"
               style="fill:none;stroke:#ffffff;stroke-width:0.3985;stroke-linecap:butt;stroke-linejoin:miter;stroke-miterlimit:10;stroke-dasharray:none;stroke-opacity:1"
               d="m 148.18362,-87.45775 45.27947,-51.42275" /></g><g
             id="g686"><path
               id="path688"
               style="fill:none;stroke:#ffffff;stroke-width:0.3985;stroke-linecap:butt;stroke-linejoin:miter;stroke-miterlimit:10;stroke-dasharray:none;stroke-opacity:1"
               d="m 198.25171,-169.6579 -20.01198,-45.63243" /></g><g
             id="g690"><path
               id="path692"
               style="fill:none;stroke:#ffffff;stroke-width:0.3985;stroke-linecap:butt;stroke-linejoin:miter;stroke-miterlimit:10;stroke-dasharray:none;stroke-opacity:1"
               d="m 163.41812,-249.12692 -19.91426,-45.51396" /></g><g
             id="g694"><path
               id="path696"
               style="fill:none;stroke:#ffffff;stroke-width:0.3985;stroke-linecap:butt;stroke-linejoin:miter;stroke-miterlimit:10;stroke-dasharray:none;stroke-opacity:1"
               d="m 178.22592,-249.12692 19.91426,-45.51396" /></g><g
             id="g698"><path
               id="path700"
               style="fill:none;stroke:#ffffff;stroke-width:0.3985;stroke-linecap:butt;stroke-linejoin:miter;stroke-miterlimit:10;stroke-dasharray:none;stroke-opacity:1"
               d="m 213.08742,-169.6579 20.51928,-46.78991" /></g></g></g></g></g></svg>